<mxfile host="app.diagrams.net" agent="Mozilla/5.0 (Macintosh; Intel Mac OS X 10_15_7) AppleWebKit/537.36 (KHTML, like Gecko) Chrome/141.0.0.0 Safari/537.36" version="28.2.7">
  <diagram name="Page-1" id="VGl0Gvfaj7zXq1x1lCM9">
    <mxGraphModel dx="1283" dy="1031" grid="1" gridSize="10" guides="1" tooltips="1" connect="1" arrows="1" fold="1" page="1" pageScale="1" pageWidth="850" pageHeight="1100" math="0" shadow="0">
      <root>
        <mxCell id="0" />
        <mxCell id="1" parent="0" />
        <mxCell id="hkpdjah_AmlaP5Y49rXp-1" value="" style="ellipse;whiteSpace=wrap;html=1;aspect=fixed;" vertex="1" parent="1">
          <mxGeometry x="30" y="250" width="80" height="80" as="geometry" />
        </mxCell>
        <mxCell id="hkpdjah_AmlaP5Y49rXp-2" value="" style="ellipse;whiteSpace=wrap;html=1;aspect=fixed;" vertex="1" parent="1">
          <mxGeometry x="440" y="90" width="80" height="80" as="geometry" />
        </mxCell>
        <mxCell id="hkpdjah_AmlaP5Y49rXp-3" value="" style="ellipse;whiteSpace=wrap;html=1;aspect=fixed;" vertex="1" parent="1">
          <mxGeometry x="140" y="450" width="80" height="80" as="geometry" />
        </mxCell>
        <mxCell id="hkpdjah_AmlaP5Y49rXp-4" value="" style="ellipse;whiteSpace=wrap;html=1;aspect=fixed;" vertex="1" parent="1">
          <mxGeometry x="570" y="260" width="80" height="80" as="geometry" />
        </mxCell>
        <mxCell id="hkpdjah_AmlaP5Y49rXp-5" value="" style="ellipse;whiteSpace=wrap;html=1;aspect=fixed;" vertex="1" parent="1">
          <mxGeometry x="160" y="80" width="80" height="80" as="geometry" />
        </mxCell>
        <mxCell id="hkpdjah_AmlaP5Y49rXp-6" value="" style="ellipse;whiteSpace=wrap;html=1;aspect=fixed;" vertex="1" parent="1">
          <mxGeometry x="370" y="370" width="80" height="80" as="geometry" />
        </mxCell>
        <mxCell id="hkpdjah_AmlaP5Y49rXp-7" value="" style="ellipse;whiteSpace=wrap;html=1;aspect=fixed;" vertex="1" parent="1">
          <mxGeometry x="320" y="670" width="80" height="80" as="geometry" />
        </mxCell>
        <mxCell id="hkpdjah_AmlaP5Y49rXp-8" value="" style="ellipse;whiteSpace=wrap;html=1;aspect=fixed;" vertex="1" parent="1">
          <mxGeometry x="570" y="520" width="80" height="80" as="geometry" />
        </mxCell>
        <mxCell id="hkpdjah_AmlaP5Y49rXp-9" value="" style="ellipse;whiteSpace=wrap;html=1;aspect=fixed;" vertex="1" parent="1">
          <mxGeometry x="690" y="90" width="80" height="80" as="geometry" />
        </mxCell>
        <mxCell id="hkpdjah_AmlaP5Y49rXp-10" value="" style="ellipse;whiteSpace=wrap;html=1;aspect=fixed;" vertex="1" parent="1">
          <mxGeometry x="580" y="720" width="80" height="80" as="geometry" />
        </mxCell>
        <mxCell id="hkpdjah_AmlaP5Y49rXp-12" value="" style="ellipse;whiteSpace=wrap;html=1;aspect=fixed;" vertex="1" parent="1">
          <mxGeometry x="860" y="620" width="80" height="80" as="geometry" />
        </mxCell>
        <mxCell id="hkpdjah_AmlaP5Y49rXp-11" value="" style="ellipse;whiteSpace=wrap;html=1;aspect=fixed;" vertex="1" parent="1">
          <mxGeometry x="790" y="400" width="80" height="80" as="geometry" />
        </mxCell>
        <mxCell id="hkpdjah_AmlaP5Y49rXp-13" value="" style="ellipse;whiteSpace=wrap;html=1;aspect=fixed;" vertex="1" parent="1">
          <mxGeometry x="930" y="180" width="80" height="80" as="geometry" />
        </mxCell>
        <mxCell id="hkpdjah_AmlaP5Y49rXp-14" value="" style="endArrow=none;html=1;rounded=0;exitX=1;exitY=0;exitDx=0;exitDy=0;entryX=0;entryY=1;entryDx=0;entryDy=0;strokeWidth=5;" edge="1" parent="1" source="hkpdjah_AmlaP5Y49rXp-6" target="hkpdjah_AmlaP5Y49rXp-4">
          <mxGeometry width="50" height="50" relative="1" as="geometry">
            <mxPoint x="570" y="380" as="sourcePoint" />
            <mxPoint x="620" y="330" as="targetPoint" />
          </mxGeometry>
        </mxCell>
        <mxCell id="hkpdjah_AmlaP5Y49rXp-15" value="" style="endArrow=none;html=1;rounded=0;exitX=0;exitY=0;exitDx=0;exitDy=0;entryX=1;entryY=1;entryDx=0;entryDy=0;strokeWidth=5;" edge="1" parent="1" source="hkpdjah_AmlaP5Y49rXp-3" target="hkpdjah_AmlaP5Y49rXp-1">
          <mxGeometry width="50" height="50" relative="1" as="geometry">
            <mxPoint x="240" y="374" as="sourcePoint" />
            <mxPoint x="384" y="320" as="targetPoint" />
          </mxGeometry>
        </mxCell>
        <mxCell id="hkpdjah_AmlaP5Y49rXp-16" value="" style="endArrow=none;html=1;rounded=0;exitX=0;exitY=0;exitDx=0;exitDy=0;entryX=1;entryY=0.5;entryDx=0;entryDy=0;strokeWidth=5;" edge="1" parent="1" source="hkpdjah_AmlaP5Y49rXp-6" target="hkpdjah_AmlaP5Y49rXp-1">
          <mxGeometry width="50" height="50" relative="1" as="geometry">
            <mxPoint x="264" y="474" as="sourcePoint" />
            <mxPoint x="210" y="330" as="targetPoint" />
          </mxGeometry>
        </mxCell>
        <mxCell id="hkpdjah_AmlaP5Y49rXp-17" value="" style="endArrow=none;html=1;rounded=0;exitX=0;exitY=1;exitDx=0;exitDy=0;entryX=1;entryY=0.5;entryDx=0;entryDy=0;strokeWidth=5;" edge="1" parent="1" source="hkpdjah_AmlaP5Y49rXp-6" target="hkpdjah_AmlaP5Y49rXp-3">
          <mxGeometry width="50" height="50" relative="1" as="geometry">
            <mxPoint x="612" y="612" as="sourcePoint" />
            <mxPoint x="340" y="520" as="targetPoint" />
          </mxGeometry>
        </mxCell>
        <mxCell id="hkpdjah_AmlaP5Y49rXp-18" value="" style="endArrow=none;html=1;rounded=0;exitX=0;exitY=0;exitDx=0;exitDy=0;entryX=0.5;entryY=1;entryDx=0;entryDy=0;strokeWidth=5;" edge="1" parent="1" source="hkpdjah_AmlaP5Y49rXp-7" target="hkpdjah_AmlaP5Y49rXp-3">
          <mxGeometry width="50" height="50" relative="1" as="geometry">
            <mxPoint x="602" y="682" as="sourcePoint" />
            <mxPoint x="330" y="590" as="targetPoint" />
          </mxGeometry>
        </mxCell>
        <mxCell id="hkpdjah_AmlaP5Y49rXp-19" value="" style="endArrow=none;html=1;rounded=0;exitX=0;exitY=0.5;exitDx=0;exitDy=0;entryX=1;entryY=0;entryDx=0;entryDy=0;strokeWidth=5;" edge="1" parent="1" source="hkpdjah_AmlaP5Y49rXp-8" target="hkpdjah_AmlaP5Y49rXp-7">
          <mxGeometry width="50" height="50" relative="1" as="geometry">
            <mxPoint x="842" y="732" as="sourcePoint" />
            <mxPoint x="570" y="640" as="targetPoint" />
          </mxGeometry>
        </mxCell>
        <mxCell id="hkpdjah_AmlaP5Y49rXp-20" value="" style="endArrow=none;html=1;rounded=0;exitX=0;exitY=0.5;exitDx=0;exitDy=0;entryX=1;entryY=0.5;entryDx=0;entryDy=0;strokeWidth=5;" edge="1" parent="1" source="hkpdjah_AmlaP5Y49rXp-10" target="hkpdjah_AmlaP5Y49rXp-7">
          <mxGeometry width="50" height="50" relative="1" as="geometry">
            <mxPoint x="792" y="812" as="sourcePoint" />
            <mxPoint x="520" y="720" as="targetPoint" />
          </mxGeometry>
        </mxCell>
        <mxCell id="hkpdjah_AmlaP5Y49rXp-21" value="" style="endArrow=none;html=1;rounded=0;exitX=0.5;exitY=1;exitDx=0;exitDy=0;entryX=0.5;entryY=0;entryDx=0;entryDy=0;strokeWidth=5;" edge="1" parent="1" source="hkpdjah_AmlaP5Y49rXp-8" target="hkpdjah_AmlaP5Y49rXp-10">
          <mxGeometry width="50" height="50" relative="1" as="geometry">
            <mxPoint x="952" y="762" as="sourcePoint" />
            <mxPoint x="680" y="670" as="targetPoint" />
          </mxGeometry>
        </mxCell>
        <mxCell id="hkpdjah_AmlaP5Y49rXp-22" value="" style="endArrow=none;html=1;rounded=0;exitX=0;exitY=0;exitDx=0;exitDy=0;entryX=1;entryY=0.5;entryDx=0;entryDy=0;strokeWidth=5;" edge="1" parent="1" source="hkpdjah_AmlaP5Y49rXp-12" target="hkpdjah_AmlaP5Y49rXp-8">
          <mxGeometry width="50" height="50" relative="1" as="geometry">
            <mxPoint x="1062" y="672" as="sourcePoint" />
            <mxPoint x="790" y="580" as="targetPoint" />
          </mxGeometry>
        </mxCell>
        <mxCell id="hkpdjah_AmlaP5Y49rXp-23" value="" style="endArrow=none;html=1;rounded=0;exitX=0;exitY=1;exitDx=0;exitDy=0;entryX=1;entryY=0.5;entryDx=0;entryDy=0;strokeWidth=5;" edge="1" parent="1" source="hkpdjah_AmlaP5Y49rXp-12" target="hkpdjah_AmlaP5Y49rXp-10">
          <mxGeometry width="50" height="50" relative="1" as="geometry">
            <mxPoint x="1052" y="792" as="sourcePoint" />
            <mxPoint x="780" y="700" as="targetPoint" />
          </mxGeometry>
        </mxCell>
        <mxCell id="hkpdjah_AmlaP5Y49rXp-24" value="" style="endArrow=none;html=1;rounded=0;exitX=0.5;exitY=0;exitDx=0;exitDy=0;entryX=1;entryY=1;entryDx=0;entryDy=0;strokeWidth=5;" edge="1" parent="1" source="hkpdjah_AmlaP5Y49rXp-12" target="hkpdjah_AmlaP5Y49rXp-11">
          <mxGeometry width="50" height="50" relative="1" as="geometry">
            <mxPoint x="1212" y="612" as="sourcePoint" />
            <mxPoint x="940" y="520" as="targetPoint" />
          </mxGeometry>
        </mxCell>
        <mxCell id="hkpdjah_AmlaP5Y49rXp-25" value="" style="endArrow=none;html=1;rounded=0;exitX=0;exitY=0;exitDx=0;exitDy=0;entryX=1;entryY=1;entryDx=0;entryDy=0;strokeWidth=5;" edge="1" parent="1" source="hkpdjah_AmlaP5Y49rXp-8" target="hkpdjah_AmlaP5Y49rXp-6">
          <mxGeometry width="50" height="50" relative="1" as="geometry">
            <mxPoint x="912" y="542" as="sourcePoint" />
            <mxPoint x="640" y="450" as="targetPoint" />
          </mxGeometry>
        </mxCell>
        <mxCell id="hkpdjah_AmlaP5Y49rXp-26" value="" style="endArrow=none;html=1;rounded=0;exitX=0.5;exitY=1;exitDx=0;exitDy=0;entryX=0.5;entryY=0;entryDx=0;entryDy=0;strokeWidth=5;" edge="1" parent="1" source="hkpdjah_AmlaP5Y49rXp-4" target="hkpdjah_AmlaP5Y49rXp-8">
          <mxGeometry width="50" height="50" relative="1" as="geometry">
            <mxPoint x="892" y="542" as="sourcePoint" />
            <mxPoint x="620" y="450" as="targetPoint" />
          </mxGeometry>
        </mxCell>
        <mxCell id="hkpdjah_AmlaP5Y49rXp-28" value="" style="endArrow=none;html=1;rounded=0;exitX=0;exitY=0;exitDx=0;exitDy=0;entryX=1;entryY=0.5;entryDx=0;entryDy=0;strokeWidth=5;" edge="1" parent="1" source="hkpdjah_AmlaP5Y49rXp-11" target="hkpdjah_AmlaP5Y49rXp-4">
          <mxGeometry width="50" height="50" relative="1" as="geometry">
            <mxPoint x="1002" y="442" as="sourcePoint" />
            <mxPoint x="730" y="350" as="targetPoint" />
          </mxGeometry>
        </mxCell>
        <mxCell id="hkpdjah_AmlaP5Y49rXp-30" value="" style="endArrow=none;html=1;rounded=0;exitX=0;exitY=1;exitDx=0;exitDy=0;entryX=1;entryY=0;entryDx=0;entryDy=0;strokeWidth=5;" edge="1" parent="1" source="hkpdjah_AmlaP5Y49rXp-11" target="hkpdjah_AmlaP5Y49rXp-8">
          <mxGeometry width="50" height="50" relative="1" as="geometry">
            <mxPoint x="882" y="572" as="sourcePoint" />
            <mxPoint x="730" y="460" as="targetPoint" />
          </mxGeometry>
        </mxCell>
        <mxCell id="hkpdjah_AmlaP5Y49rXp-31" value="" style="endArrow=none;html=1;rounded=0;exitX=0;exitY=1;exitDx=0;exitDy=0;entryX=1;entryY=0;entryDx=0;entryDy=0;strokeWidth=5;" edge="1" parent="1" source="hkpdjah_AmlaP5Y49rXp-13" target="hkpdjah_AmlaP5Y49rXp-11">
          <mxGeometry width="50" height="50" relative="1" as="geometry">
            <mxPoint x="1112" y="462" as="sourcePoint" />
            <mxPoint x="960" y="350" as="targetPoint" />
          </mxGeometry>
        </mxCell>
        <mxCell id="hkpdjah_AmlaP5Y49rXp-32" value="" style="endArrow=none;html=1;rounded=0;exitX=0;exitY=0;exitDx=0;exitDy=0;entryX=1;entryY=0.5;entryDx=0;entryDy=0;strokeWidth=5;" edge="1" parent="1" source="hkpdjah_AmlaP5Y49rXp-13" target="hkpdjah_AmlaP5Y49rXp-9">
          <mxGeometry width="50" height="50" relative="1" as="geometry">
            <mxPoint x="892" y="322" as="sourcePoint" />
            <mxPoint x="740" y="210" as="targetPoint" />
          </mxGeometry>
        </mxCell>
        <mxCell id="hkpdjah_AmlaP5Y49rXp-33" value="" style="endArrow=none;html=1;rounded=0;exitX=1;exitY=0;exitDx=0;exitDy=0;entryX=0.28;entryY=0.911;entryDx=0;entryDy=0;strokeWidth=5;entryPerimeter=0;" edge="1" parent="1" source="hkpdjah_AmlaP5Y49rXp-4" target="hkpdjah_AmlaP5Y49rXp-9">
          <mxGeometry width="50" height="50" relative="1" as="geometry">
            <mxPoint x="712" y="342" as="sourcePoint" />
            <mxPoint x="560" y="230" as="targetPoint" />
          </mxGeometry>
        </mxCell>
        <mxCell id="hkpdjah_AmlaP5Y49rXp-34" value="" style="endArrow=none;html=1;rounded=0;exitX=0;exitY=0;exitDx=0;exitDy=0;entryX=1;entryY=1;entryDx=0;entryDy=0;strokeWidth=5;" edge="1" parent="1" source="hkpdjah_AmlaP5Y49rXp-4" target="hkpdjah_AmlaP5Y49rXp-2">
          <mxGeometry width="50" height="50" relative="1" as="geometry">
            <mxPoint x="682" y="312" as="sourcePoint" />
            <mxPoint x="530" y="200" as="targetPoint" />
          </mxGeometry>
        </mxCell>
        <mxCell id="hkpdjah_AmlaP5Y49rXp-35" value="" style="endArrow=none;html=1;rounded=0;exitX=1;exitY=0;exitDx=0;exitDy=0;entryX=0;entryY=1;entryDx=0;entryDy=0;strokeWidth=5;" edge="1" parent="1" source="hkpdjah_AmlaP5Y49rXp-1" target="hkpdjah_AmlaP5Y49rXp-5">
          <mxGeometry width="50" height="50" relative="1" as="geometry">
            <mxPoint x="512" y="362" as="sourcePoint" />
            <mxPoint x="360" y="250" as="targetPoint" />
          </mxGeometry>
        </mxCell>
        <mxCell id="hkpdjah_AmlaP5Y49rXp-38" value="" style="endArrow=none;html=1;rounded=0;exitX=0.02;exitY=0.372;exitDx=0;exitDy=0;entryX=1;entryY=0.5;entryDx=0;entryDy=0;strokeWidth=5;exitPerimeter=0;" edge="1" parent="1" source="hkpdjah_AmlaP5Y49rXp-2" target="hkpdjah_AmlaP5Y49rXp-5">
          <mxGeometry width="50" height="50" relative="1" as="geometry">
            <mxPoint x="432" y="232" as="sourcePoint" />
            <mxPoint x="280" y="120" as="targetPoint" />
          </mxGeometry>
        </mxCell>
        <mxCell id="hkpdjah_AmlaP5Y49rXp-39" value="" style="endArrow=none;html=1;rounded=0;exitX=0;exitY=0.5;exitDx=0;exitDy=0;entryX=1.02;entryY=0.391;entryDx=0;entryDy=0;strokeWidth=5;entryPerimeter=0;" edge="1" parent="1" source="hkpdjah_AmlaP5Y49rXp-9" target="hkpdjah_AmlaP5Y49rXp-2">
          <mxGeometry width="50" height="50" relative="1" as="geometry">
            <mxPoint x="732" y="232" as="sourcePoint" />
            <mxPoint x="580" y="120" as="targetPoint" />
          </mxGeometry>
        </mxCell>
        <mxCell id="hkpdjah_AmlaP5Y49rXp-40" value="" style="endArrow=none;html=1;rounded=0;exitX=1.011;exitY=0.343;exitDx=0;exitDy=0;entryX=0;entryY=0.5;entryDx=0;entryDy=0;strokeWidth=5;exitPerimeter=0;" edge="1" parent="1" source="hkpdjah_AmlaP5Y49rXp-4" target="hkpdjah_AmlaP5Y49rXp-13">
          <mxGeometry width="50" height="50" relative="1" as="geometry">
            <mxPoint x="982" y="342" as="sourcePoint" />
            <mxPoint x="830" y="230" as="targetPoint" />
          </mxGeometry>
        </mxCell>
        <mxCell id="hkpdjah_AmlaP5Y49rXp-41" value="" style="endArrow=none;html=1;rounded=0;exitX=0.5;exitY=0;exitDx=0;exitDy=0;entryX=0.741;entryY=1.007;entryDx=0;entryDy=0;strokeWidth=5;entryPerimeter=0;" edge="1" parent="1" source="hkpdjah_AmlaP5Y49rXp-11" target="hkpdjah_AmlaP5Y49rXp-9">
          <mxGeometry width="50" height="50" relative="1" as="geometry">
            <mxPoint x="922" y="422" as="sourcePoint" />
            <mxPoint x="770" y="310" as="targetPoint" />
          </mxGeometry>
        </mxCell>
        <mxCell id="hkpdjah_AmlaP5Y49rXp-44" value="" style="endArrow=none;html=1;rounded=0;exitX=0.5;exitY=1;exitDx=0;exitDy=0;entryX=0.5;entryY=0;entryDx=0;entryDy=0;strokeWidth=5;" edge="1" parent="1" source="hkpdjah_AmlaP5Y49rXp-6" target="hkpdjah_AmlaP5Y49rXp-7">
          <mxGeometry width="50" height="50" relative="1" as="geometry">
            <mxPoint x="512" y="652" as="sourcePoint" />
            <mxPoint x="360" y="540" as="targetPoint" />
          </mxGeometry>
        </mxCell>
        <mxCell id="hkpdjah_AmlaP5Y49rXp-45" value="" style="endArrow=none;html=1;rounded=0;exitX=0;exitY=1;exitDx=0;exitDy=0;entryX=0.712;entryY=-0.012;entryDx=0;entryDy=0;strokeWidth=5;entryPerimeter=0;" edge="1" parent="1" source="hkpdjah_AmlaP5Y49rXp-2" target="hkpdjah_AmlaP5Y49rXp-3">
          <mxGeometry width="50" height="50" relative="1" as="geometry">
            <mxPoint x="392" y="532" as="sourcePoint" />
            <mxPoint x="240" y="420" as="targetPoint" />
          </mxGeometry>
        </mxCell>
        <mxCell id="hkpdjah_AmlaP5Y49rXp-46" value="" style="endArrow=none;html=1;rounded=0;exitX=0.5;exitY=0;exitDx=0;exitDy=0;entryX=0.5;entryY=1;entryDx=0;entryDy=0;strokeWidth=5;" edge="1" parent="1" source="hkpdjah_AmlaP5Y49rXp-3" target="hkpdjah_AmlaP5Y49rXp-5">
          <mxGeometry width="50" height="50" relative="1" as="geometry">
            <mxPoint x="512" y="272" as="sourcePoint" />
            <mxPoint x="360" y="160" as="targetPoint" />
          </mxGeometry>
        </mxCell>
        <mxCell id="hkpdjah_AmlaP5Y49rXp-47" value="" style="endArrow=none;html=1;rounded=0;exitX=0;exitY=0.5;exitDx=0;exitDy=0;entryX=1.02;entryY=0.709;entryDx=0;entryDy=0;strokeWidth=5;entryPerimeter=0;" edge="1" parent="1" source="hkpdjah_AmlaP5Y49rXp-4" target="hkpdjah_AmlaP5Y49rXp-5">
          <mxGeometry width="50" height="50" relative="1" as="geometry">
            <mxPoint x="512" y="282" as="sourcePoint" />
            <mxPoint x="360" y="170" as="targetPoint" />
          </mxGeometry>
        </mxCell>
        <mxCell id="hkpdjah_AmlaP5Y49rXp-48" value="" style="endArrow=none;html=1;rounded=0;entryX=0.703;entryY=0.949;entryDx=0;entryDy=0;strokeWidth=5;entryPerimeter=0;" edge="1" parent="1" source="hkpdjah_AmlaP5Y49rXp-10" target="hkpdjah_AmlaP5Y49rXp-6">
          <mxGeometry width="50" height="50" relative="1" as="geometry">
            <mxPoint x="572" y="662" as="sourcePoint" />
            <mxPoint x="420" y="550" as="targetPoint" />
          </mxGeometry>
        </mxCell>
        <mxCell id="hkpdjah_AmlaP5Y49rXp-50" value="" style="endArrow=none;html=1;rounded=0;exitX=0.5;exitY=1;exitDx=0;exitDy=0;entryX=0.732;entryY=0.036;entryDx=0;entryDy=0;strokeWidth=5;entryPerimeter=0;" edge="1" parent="1" source="hkpdjah_AmlaP5Y49rXp-13" target="hkpdjah_AmlaP5Y49rXp-12">
          <mxGeometry width="50" height="50" relative="1" as="geometry">
            <mxPoint x="1172" y="572" as="sourcePoint" />
            <mxPoint x="1020" y="460" as="targetPoint" />
          </mxGeometry>
        </mxCell>
        <mxCell id="hkpdjah_AmlaP5Y49rXp-51" value="" style="endArrow=none;html=1;rounded=0;exitX=0.5;exitY=1;exitDx=0;exitDy=0;entryX=1;entryY=0;entryDx=0;entryDy=0;strokeWidth=5;" edge="1" parent="1" source="hkpdjah_AmlaP5Y49rXp-11" target="hkpdjah_AmlaP5Y49rXp-10">
          <mxGeometry width="50" height="50" relative="1" as="geometry">
            <mxPoint x="902" y="742" as="sourcePoint" />
            <mxPoint x="750" y="630" as="targetPoint" />
          </mxGeometry>
        </mxCell>
      </root>
    </mxGraphModel>
  </diagram>
</mxfile>
